<svg fill="rgba(0,0,0, 0.5)" height="24" viewBox="0 0 24 24" width="24" xmlns="http://www.w3.org/2000/svg">
  <path
     d="M0 0h24v24H0z"
     fill="none"
     id="path4" />
  <path
     d="M 14,2 6,2 C 4.9,2 4.01,2.9 4.01,4 L 4,20 c 0,1.1 0.89,2 1.99,2 L 18,22 c 1.1,0 2,-0.9 2,-2 L 20,8 Z"
     id="path6" />
  <rect
     style="fill: none;stroke:#ffffff;stroke-width:2.05800009;stroke-linecap:butt;stroke-linejoin:miter;stroke-miterlimit:4.0999999;stroke-dasharray:none;stroke-opacity:1"
     id="rect3340"
     width="9.4499788"
     height="13.501984"
     x="7.2514"
     y="5.8955808"
     ry="4.7545766"
     rx="0" />
  <path
     style="fill:none;fill-rule:evenodd;stroke:#ffffff;stroke-width:1.33327448;stroke-linecap:butt;stroke-linejoin:miter;stroke-miterlimit:4;stroke-dasharray:none;stroke-opacity:1"
     d="m 10.319628,9.0795378 c 0,3.0113052 1.697183,3.6776952 1.697183,3.6776952 0,0 1.706209,0.815328 1.684541,3.341769"
     id="path4144"/>
  <path
     style="fill:none;fill-rule:evenodd;stroke:#ffffff;stroke-width:1.33327448;stroke-linecap:butt;stroke-linejoin:miter;stroke-miterlimit:4;stroke-dasharray:none;stroke-opacity:1"
     d="m 13.686023,9.0789383 c 0,3.0113057 -1.688786,3.6328347 -1.688786,3.6328347 0,0 -1.714605,0.860188 -1.692939,3.38663"
     id="path4144-6" />
  <path
     style="fill:none;fill-rule:evenodd;stroke:#ffffff;stroke-width:0.72408694;stroke-linecap:butt;stroke-linejoin:miter;stroke-miterlimit:4;stroke-dasharray:none;stroke-opacity:1"
     d="m 10.966846,10.946597 1.996177,-8.7e-4"
     id="path4163-6-9-0-4"/>
  <path
     style="fill:none;fill-rule:evenodd;stroke:#ffffff;stroke-width:0.95830166;stroke-linecap:butt;stroke-linejoin:miter;stroke-miterlimit:4;stroke-dasharray:none;stroke-opacity:1"
     d="m 10.975863,9.5596897 2.072577,-0.00148"
     id="path4163-6-9-2" />
  <path
     style="fill:none;fill-rule:evenodd;stroke:#ffffff;stroke-width:0.96366292;stroke-linecap:butt;stroke-linejoin:miter;stroke-miterlimit:4;stroke-dasharray:none;stroke-opacity:1"
     d="m 10.959735,15.614021 2.096156,-0.0015"
     id="path4163-6-9-2-6"/>
  <path
     style="fill:none;fill-rule:evenodd;stroke:#ffffff;stroke-width:0.72408694;stroke-linecap:butt;stroke-linejoin:miter;stroke-miterlimit:4;stroke-dasharray:none;stroke-opacity:1"
     d="m 11.029255,14.387154 1.996177,-8.7e-4"
     id="path4163-6-9-0-4-2"/>
</svg>
