<svg height="24" viewBox="0 0 24 24" width="24" xmlns="http://www.w3.org/2000/svg">
  <path
     d="M0 0h24v24H0z"
     fill="none"
     id="path3404" />
  <path
     d="m 11.179238,16.833808 c 2.284439,-1.555099 8.831831,-6.682331 9.727188,-7.5351698 0,0 2.3554,-2.3708029 0.330572,-4.9457673 C 18.84158,1.3066289 16.035409,3.2955158 16.035409,3.2955158 L 5.9682747,10.88144 c 0,0 -2.8531492,2.005 -0.4173182,5.247465 2.3137284,3.079928 5.6282815,0.704903 5.6282815,0.704903 z"/>
  <path
     d="m 13.563408,5.1872916 c 0,0 -2.380117,0.7825044 -3.7821038,0.4890652 C 8.3793172,5.3829177 6.1296173,5.0894786 4.8580477,5.7089612 3.5864782,6.3284438 1.9888652,8.2521003 2.5431391,10.306174 c 0.5542739,2.054074 0.5868782,1.532404 0.5868782,1.532404 0,0 0.066414,0.06497 -0.065209,-0.586878 C 2.722463,9.5562739 2.8208748,8.6531659 3.2441326,8.040172 3.7168956,7.3554808 4.5956666,6.1757069 6.2274304,6.1328177 8.6017522,6.0704112 8.8357781,6.5892786 9.9117219,6.6544873 11.511713,6.7514564 11.933191,6.5566739 11.933191,6.5566739 Z"/>
  <path
     d="m 5.1705861,15.409913 c 0,0 -1.8707671,1.175677 -2.4677022,2.45092 -0.5915124,1.263658 -0.8262967,3.231786 0.4126685,4.438147 1.2389652,1.206361 4.0149472,1.849529 6.9400926,0.133694 1.92535,-1.736369 1.561215,-3.090239 3.639819,-4.504994 1.032893,-0.582208 1.69147,-1.039383 1.69147,-1.039383 -0.168317,-0.190623 -0.617543,-0.01531 -2.587609,1.009775 C 10.879653,19.37944 10.652598,21.29796 9.2105294,22.027637 7.3828127,22.730892 5.8370215,23.265244 3.68497,21.652487 2.3783218,19.913079 3.5753627,17.436836 5.906021,16.505634 Z" />
  <path
     d="m 19.399587,10.469196 c 0,0 -1.483018,2.335646 -1.287392,2.922524 0.195626,0.586878 1.754362,1.475389 2.591566,2.750632 0.202441,0.308362 0.909614,1.976613 0.63067,2.640952 -0.691471,1.646819 -2.123635,3.747299 -2.254053,3.682091 -0.130417,-0.06521 1.51046,-2.369717 1.713284,-3.770354 0.186215,-1.367136 -0.757811,-2.354745 -1.622985,-3.059215 -0.644592,-0.52486 -1.531725,-1.025878 -1.857769,-1.743174 -0.326043,-0.717295 0.06521,-1.72803 0.06521,-1.72803 z" />
  <path
     d="m 8.4149856,9.129683 c 0,0 -1.0658729,-0.730081 -1.0644743,-1.2449568 0.00213,-0.7841977 0.031195,-1.095306 0.1220263,-1.5365175 -0.2504582,-0.050634 -0.7258854,-0.028409 -0.7258854,-0.028409 0,0 -0.3113386,1.1396713 -0.1664975,2.0693339 0.093766,0.6018389 0.9221902,1.359072 0.9221902,1.359072 z"/>
  <path
     d="M 7.7842879,5.1383851 C 8.2810815,3.4657648 7.8376051,3.037138 8.3222596,2.6360014 9.1532998,1.7296323 10.082335,1.599886 10.547506,2.0165189 c 0.369556,0.3309941 1.108548,0.847713 0.627634,2.3393618 -0.284733,0.4682275 -0.105964,0.3994033 -0.105964,0.3994033 0,0 0.399403,-0.3912522 0.45646,-0.5950294 C 11.582694,3.9564775 12.063609,2.8316275 10.881701,1.7230797 9.6997934,0.61453191 7.8778099,2.2154801 7.7109281,2.4811308 7.4337912,2.8316275 7.4826977,3.8749666 7.3115249,4.4210895 7.1403521,4.9672123 7.132201,5.1057808 7.132201,5.1057808 c 0,0 0.4217553,-0.015036 0.6520869,0.032604 z" />
</svg>
